<?xml version="1.0" encoding="UTF-8"?>
<svg version="1.1" xmlns="http://www.w3.org/2000/svg" width="3125" height="1875">
<path d="M0 0 C47.21434097 -1.3388646 94.39061599 9.68421109 135.97021484 32.06201172 C137.03780029 32.625896 137.03780029 32.625896 138.12695312 33.20117188 C159.83931724 44.69484588 179.31215089 59.00370823 196.97021484 76.06201172 C197.67758789 76.74215332 198.38496094 77.42229492 199.11376953 78.12304688 C208.89179014 87.5690074 217.89341222 97.12829049 225.97021484 108.06201172 C227.06269531 109.44453125 227.06269531 109.44453125 228.17724609 110.85498047 C272.25219011 167.15972877 288.83729213 240.81020189 280.97021484 311.06201172 C275.85140382 352.57309979 261.24616256 393.24967398 237.97021484 428.06201172 C237.5623877 428.67254395 237.15456055 429.28307617 236.734375 429.91210938 C226.77439823 444.64165248 215.26047473 458.23681125 202.97021484 471.06201172 C202.19033203 471.88314453 201.41044922 472.70427734 200.60693359 473.55029297 C195.96339898 478.32579304 191.04391505 482.59319921 185.84130859 486.74951172 C182.91351329 489.10768154 180.07170316 491.54991102 177.22021484 493.99951172 C166.05497164 503.30628219 153.5322304 510.80485589 140.97021484 518.06201172 C139.32279297 519.02880859 139.32279297 519.02880859 137.64208984 520.01513672 C77.48930315 553.79957856 4.3024298 560.05774897 -62.02978516 544.06201172 C-62.90376953 543.85237793 -63.77775391 543.64274414 -64.67822266 543.42675781 C-113.06267394 531.48690177 -155.77556237 504.30863899 -190.84228516 469.49951172 C-191.71393311 468.63720947 -192.58558105 467.77490723 -193.48364258 466.88647461 C-199.4197703 460.9209741 -204.82615491 454.6733278 -210.02978516 448.06201172 C-210.91573364 446.94258179 -210.91573364 446.94258179 -211.81958008 445.80053711 C-226.60637064 426.86291582 -238.41503566 406.05508474 -248.02978516 384.06201172 C-248.35527344 383.31854492 -248.68076172 382.57507812 -249.01611328 381.80908203 C-256.46257371 364.48323621 -261.21599437 346.15611424 -264.84228516 327.68701172 C-265.03709473 326.70345703 -265.2319043 325.71990234 -265.43261719 324.70654297 C-268.3739933 308.88789996 -269.4153921 293.06481231 -269.34228516 276.99951172 C-269.34046234 276.15750214 -269.33863953 275.31549255 -269.33676147 274.44796753 C-269.28386873 259.82975771 -268.46116754 245.49954115 -266.02978516 231.06201172 C-265.86349609 230.07313965 -265.69720703 229.08426758 -265.52587891 228.06542969 C-258.6183154 188.67313003 -243.34204544 150.62888789 -220.02978516 118.06201172 C-218.92376953 116.51513672 -218.92376953 116.51513672 -217.79541016 114.93701172 C-204.52666006 96.86892649 -189.30871402 79.17321994 -171.74072266 65.22216797 C-170.01208456 63.84473733 -168.30588289 62.43832394 -166.63134766 60.99560547 C-152.27245917 48.69769309 -135.80230599 38.70117059 -119.02978516 30.06201172 C-118.29646973 29.68238281 -117.5631543 29.30275391 -116.80761719 28.91162109 C-80.66975107 10.43748444 -40.45117347 1.23581887 0 0 Z M-46.02978516 46.06201172 C-46.25857462 91.69422618 -46.43483111 137.32638003 -46.54043845 182.95905478 C-46.55294582 188.34396063 -46.56588901 193.72886536 -46.57910156 199.11376953 C-46.58172467 200.18582637 -46.58434777 201.25788321 -46.58705036 202.36242662 C-46.63058724 219.73087202 -46.70944573 237.0989871 -46.80131312 254.46723641 C-46.89476314 272.28302028 -46.95035904 290.09863093 -46.9706701 307.91464984 C-46.98440519 318.91209891 -47.02781448 329.90861444 -47.10894983 340.90577619 C-47.16172953 348.44260779 -47.17780468 355.97895542 -47.16479893 363.5159585 C-47.15838063 367.86761508 -47.1683515 372.21763842 -47.2218399 376.56900597 C-47.2704471 380.55229948 -47.27301053 384.53285972 -47.23877411 388.51627813 C-47.23454238 389.95788388 -47.24728923 391.39965895 -47.27861698 392.84093048 C-47.36574411 397.09638604 -47.32030304 400.98817578 -46.02978516 405.06201172 C-43.03224538 408.00165015 -39.89403937 409.51435919 -36.02978516 411.06201172 C-34.94608643 411.66899902 -33.8623877 412.27598633 -32.74584961 412.90136719 C-31.80443115 413.40555176 -30.8630127 413.90973633 -29.89306641 414.42919922 C-28.81992187 415.00541016 -27.74677734 415.58162109 -26.64111328 416.17529297 C-25.00819336 417.04734375 -25.00819336 417.04734375 -23.34228516 417.93701172 C-22.27300781 418.51064453 -21.20373047 419.08427734 -20.10205078 419.67529297 C-11.75225002 424.15178317 -3.38925734 428.60362656 4.97021484 433.06201172 C4.97021484 314.26201172 4.97021484 195.46201172 4.97021484 73.06201172 C-4.08884733 67.88540476 -13.14465241 62.78831551 -22.34228516 57.87451172 C-24.54701921 56.6940953 -26.75145221 55.51311641 -28.95556641 54.33154297 C-29.98762207 53.77934082 -31.01967773 53.22713867 -32.08300781 52.65820312 C-35.52229059 50.79523454 -38.92405308 48.8712672 -42.31176758 46.91625977 C-44.00847804 45.91360256 -44.00847804 45.91360256 -46.02978516 46.06201172 Z M97.97021484 102.06201172 C97.97021484 194.13201172 97.97021484 286.20201172 97.97021484 381.06201172 C107.36308075 386.34549879 116.74400811 391.62188772 126.22021484 396.74951172 C127.67814453 397.54325195 127.67814453 397.54325195 129.16552734 398.35302734 C136.03798118 402.07636606 142.97078218 405.56229538 149.97021484 409.06201172 C149.97021484 316.99201172 149.97021484 224.92201172 149.97021484 130.06201172 C142.05021484 125.77201172 134.13021484 121.48201172 125.97021484 117.06201172 C121.02623172 114.36478808 116.08388401 111.66487802 111.14599609 108.95654297 C110.28103516 108.48345703 109.41607422 108.01037109 108.52490234 107.52294922 C107.78739746 107.11866699 107.04989258 106.71438477 106.29003906 106.29785156 C103.54345442 104.83466366 100.75368692 103.45374776 97.97021484 102.06201172 Z M-118.02978516 163.06201172 C-118.02978516 247.21201172 -118.02978516 331.36201172 -118.02978516 418.06201172 C-110.43978516 422.02201172 -102.84978516 425.98201172 -95.02978516 430.06201172 C-90.99886296 432.23498461 -86.97493518 434.41049527 -82.96728516 436.62451172 C-81.18527471 437.60596456 -79.40273846 438.58646342 -77.61962891 439.56591797 C-76.50382446 440.18188843 -76.50382446 440.18188843 -75.36547852 440.81030273 C-72.61624477 442.28362994 -69.81962088 443.66709386 -67.02978516 445.06201172 C-67.02978516 360.91201172 -67.02978516 276.76201172 -67.02978516 190.06201172 C-76.08884733 184.88540476 -85.14465241 179.78831551 -94.34228516 174.87451172 C-96.54701921 173.6940953 -98.75145221 172.51311641 -100.95556641 171.33154297 C-101.98762207 170.77934082 -103.01967773 170.22713867 -104.08300781 169.65820312 C-107.52229059 167.79523454 -110.92405308 165.8712672 -114.31176758 163.91625977 C-116.00847804 162.91360256 -116.00847804 162.91360256 -118.02978516 163.06201172 Z M25.97021484 181.06201172 C25.97021484 251.02201172 25.97021484 320.98201172 25.97021484 393.06201172 C34.60412579 397.99567511 43.2266725 402.8962191 51.97021484 407.62451172 C52.93443359 408.14980469 53.89865234 408.67509766 54.89208984 409.21630859 C62.51129802 413.34337969 70.2083791 417.18109385 77.97021484 421.06201172 C77.97021484 350.77201172 77.97021484 280.48201172 77.97021484 208.06201172 C68.07021484 202.78201172 58.17021484 197.50201172 47.97021484 192.06201172 C36.22021484 185.56201172 36.22021484 185.56201172 31.48583984 182.90576172 C28.33664222 180.90719566 28.33664222 180.90719566 25.97021484 181.06201172 Z M169.97021484 204.06201172 C169.97021484 258.51201172 169.97021484 312.96201172 169.97021484 369.06201172 C185.19041335 377.52376363 185.19041335 377.52376363 200.47021484 385.87451172 C201.93974609 386.67405273 201.93974609 386.67405273 203.43896484 387.48974609 C204.40833984 388.01503906 205.37771484 388.54033203 206.37646484 389.08154297 C207.215 389.53634033 208.05353516 389.9911377 208.91748047 390.4597168 C213.23476462 392.72573854 217.60913269 394.88147064 221.97021484 397.06201172 C221.97021484 342.61201172 221.97021484 288.16201172 221.97021484 232.06201172 C204.47834548 222.51576577 204.47834548 222.51576577 186.97021484 212.99951172 C185.97505859 212.45875 184.97990234 211.91798828 183.95458984 211.36083984 C182.99037109 210.838125 182.02615234 210.31541016 181.03271484 209.77685547 C180.19869141 209.32431396 179.36466797 208.87177246 178.50537109 208.40551758 C175.68471484 206.91071101 172.82546242 205.4896355 169.97021484 204.06201172 Z M-191.02978516 279.06201172 C-191.02978516 328.56201172 -191.02978516 378.06201172 -191.02978516 429.06201172 C-173.37032706 439.12153214 -173.37032706 439.12153214 -155.46728516 448.68701172 C-154.52433594 449.17556641 -153.58138672 449.66412109 -152.60986328 450.16748047 C-148.09937254 452.50060253 -143.57224341 454.79078259 -139.02978516 457.06201172 C-139.02978516 407.56201172 -139.02978516 358.06201172 -139.02978516 307.06201172 C-148.03010856 301.91896977 -157.02559193 296.83748335 -166.15478516 291.93701172 C-167.23115234 291.35564453 -168.30751953 290.77427734 -169.41650391 290.17529297 C-170.48771484 289.59908203 -171.55892578 289.02287109 -172.66259766 288.42919922 C-173.59990723 287.92501465 -174.5372168 287.42083008 -175.50292969 286.90136719 C-180.64368652 284.22031624 -185.84400344 281.65490258 -191.02978516 279.06201172 Z " fill="#F7AE61" transform="translate(373.02978515625,661.93798828125)"/>
<path d="M0 0 C22.831875 -0.04125 45.66375 -0.0825 69.1875 -0.125 C76.35750732 -0.14320801 83.52751465 -0.16141602 90.91479492 -0.18017578 C99.7701416 -0.18920898 99.7701416 -0.18920898 103.93501282 -0.19088745 C106.80162242 -0.19272699 109.66815556 -0.20012492 112.53474426 -0.21115112 C149.91561378 -0.34835761 196.33201632 0.03846017 225.09814453 27.99414062 C226.41137241 29.31702797 227.706336 30.65797473 229 32 C229.66257812 32.63164063 230.32515625 33.26328125 231.0078125 33.9140625 C244.99517795 48.1523224 248.32898486 68.63198018 248.4375 87.6875 C248.34808675 97.43757833 247.82726185 106.61394851 245 116 C244.50693359 117.64742187 244.50693359 117.64742187 244.00390625 119.328125 C237.40735739 138.59278672 223.39100448 151.65493767 205.6171875 160.7265625 C182.61131886 171.13525017 157.27362006 174.18241399 132.25708008 174.11352539 C130.78393144 174.11321839 129.31078266 174.11335368 127.83763409 174.11389065 C123.92451658 174.11411462 120.01143022 174.10835663 116.09832001 174.10128021 C112.41430065 174.0955473 108.73028853 174.09531504 105.04626465 174.09460449 C94.30167238 174.08937584 83.55708578 174.07541458 72.8125 174.0625 C48.784375 174.041875 24.75625 174.02125 0 174 C0 116.58 0 59.16 0 0 Z M43 41 C43 71.69 43 102.38 43 134 C57.293125 134.04125 71.58625 134.0825 86.3125 134.125 C90.76532471 134.14320801 95.21814941 134.16141602 99.8059082 134.18017578 C151.01758801 136.72161569 151.01758801 136.72161569 196 117 C203.68633471 109.2156253 205.39263492 98.01656593 205.5 87.5 C205.35667239 74.69310763 202.35003643 64.22879872 193.10546875 55.13671875 C178.27129576 42.28410505 154.24216479 40.81344833 135.40966797 40.88647461 C133.90055092 40.88625557 133.90055092 40.88625557 132.36094666 40.8860321 C129.0713375 40.88672275 125.78178663 40.89447502 122.4921875 40.90234375 C120.19719473 40.90421095 117.90220156 40.90563343 115.60720825 40.90663147 C109.59361656 40.91043288 103.58004936 40.92024268 97.56646729 40.93133545 C90.33678697 40.94340862 83.10709842 40.94796313 75.87741089 40.95378876 C64.91825693 40.96345585 53.95915664 40.98262902 43 41 Z " fill="#FFFFFF" transform="translate(2055,773)"/>
<path d="M0 0 C14.19816696 13.32711377 23.76678371 32.1355982 24.64453125 51.703125 C25.2190323 74.30974142 19.46526647 94.56413009 3.69140625 111.33203125 C2.92183594 112.11449219 2.15226562 112.89695312 1.359375 113.703125 C0.68261719 114.39277344 0.00585938 115.08242188 -0.69140625 115.79296875 C-21.86499143 135.92980588 -54.3179644 144.20229433 -82.640625 146.703125 C-83.53587891 146.78780029 -84.43113281 146.87247559 -85.35351562 146.9597168 C-94.45185795 147.75391567 -103.51563161 147.90502472 -112.640625 147.890625 C-113.79664215 147.88922012 -113.79664215 147.88922012 -114.97601318 147.88778687 C-155.25310778 147.78203305 -199.21358605 141.31089151 -229.515625 112.328125 C-245.553805 95.59060576 -251.2524119 74.81323584 -250.91015625 52.16796875 C-250.2860441 34.45609626 -242.55266998 17.68771043 -230.640625 4.703125 C-229.98835938 3.95933594 -229.33609375 3.21554687 -228.6640625 2.44921875 C-177.42238916 -52.72674038 -53.64044936 -46.65766897 0 0 Z M-196.640625 28.703125 C-204.0989427 37.83604611 -207.32716139 48.23106976 -206.921875 59.984375 C-205.69225735 71.87067891 -200.68858712 82.08996512 -191.4375 89.7578125 C-169.49864106 105.01696299 -142.09954832 107.25997809 -116.12939453 107.09423828 C-113.14178861 107.07813127 -110.15553472 107.0942148 -107.16796875 107.11328125 C-80.54008718 107.14277433 -49.99807679 104.46683501 -29.80078125 85.15625 C-22.01527747 76.31484607 -19.10755261 66.17675868 -19.3984375 54.58984375 C-20.41711141 42.44790796 -24.94494723 32.34068076 -34.328125 24.390625 C-71.31788686 -2.78326303 -162.74486663 -5.13399019 -196.640625 28.703125 Z " fill="#FFFFFF" transform="translate(2633.640625,803.296875)"/>
<path d="M0 0 C3.81349246 1.52539698 6.72501355 2.94134454 10.140625 5.08984375 C11.6090686 6.01011353 11.6090686 6.01011353 13.10717773 6.94897461 C14.66287476 7.93329468 14.66287476 7.93329468 16.25 8.9375 C17.32902588 9.61627197 18.40805176 10.29504395 19.51977539 10.99438477 C26.88101265 15.63439078 34.20286826 20.33217846 41.49609375 25.078125 C46.97920565 28.64295792 52.49015236 32.16418745 58 35.6875 C59.5931604 36.70638306 59.5931604 36.70638306 61.21850586 37.74584961 C63.3942954 39.13715858 65.57015863 40.52835231 67.74609375 41.91943359 C74.03262774 45.93907965 80.3170716 49.96199365 86.60107422 53.9855957 C91.93181007 57.3983882 97.26475687 60.80764319 102.6015625 64.2109375 C104.22819824 65.24939819 104.22819824 65.24939819 105.88769531 66.30883789 C108.01883269 67.66900498 110.15096906 69.02760829 112.28417969 70.38452148 C116.81505625 73.27594567 121.31759675 76.18686985 125.7265625 79.26171875 C126.41862793 79.74141113 127.11069336 80.22110352 127.82373047 80.71533203 C129.05885173 81.5791342 130.28539083 82.45541862 131.50048828 83.34716797 C133.81873303 84.96888394 135.48980601 85.98305003 138.3515625 86.078125 C142.41856221 84.4225322 145.95890948 82.08674261 149.625 79.6875 C151.33580622 78.58703546 153.04674746 77.48678082 154.7578125 76.38671875 C155.62954102 75.82259277 156.50126953 75.2584668 157.39941406 74.67724609 C161.41399403 72.08804553 165.45733149 69.54502541 169.5 67 C171.09001415 65.99636365 172.67985759 64.99245682 174.26953125 63.98828125 C175.05408691 63.49279785 175.83864258 62.99731445 176.64697266 62.48681641 C178.95668889 61.02736716 181.26557074 59.56660708 183.57421875 58.10546875 C193.39071818 51.89503034 203.23197412 45.72533029 213.08544922 39.57373047 C222.41135783 33.74895509 231.70894167 27.88014293 241 22 C246.56155156 18.48190588 252.12548015 14.96762806 257.69238281 11.45800781 C260.02450035 9.98452009 262.35227377 8.50434124 264.6796875 7.0234375 C266.14052866 6.09880611 267.60146184 5.17432008 269.0625 4.25 C269.73563232 3.81929199 270.40876465 3.38858398 271.10229492 2.94482422 C275.77316414 0 275.77316414 0 278 0 C278 59.73 278 119.46 278 181 C263.81 181 249.62 181 235 181 C235 146.02 235 111.04 235 75 C220.92466008 84.10543766 220.92466008 84.10543766 206.875 93.25 C204.90365143 94.53646691 202.93229709 95.82292498 200.9609375 97.109375 C199.48125488 98.07520508 199.48125488 98.07520508 197.97167969 99.06054688 C194.10118281 101.58660892 190.22984196 104.11137543 186.35839844 106.63598633 C184.45794319 107.8753078 182.55755221 109.11472784 180.65722656 110.35424805 C175.69168791 113.59306781 170.72534198 116.83064062 165.7578125 120.06640625 C164.21770508 121.06994141 164.21770508 121.06994141 162.64648438 122.09375 C160.69751621 123.36366591 158.74831476 124.63322391 156.79882812 125.90234375 C155.90873047 126.48242188 155.01863281 127.0625 154.1015625 127.66015625 C153.2446582 128.2133252 152.38775391 128.76649414 151.50488281 129.33642578 C149.82613071 130.4513397 148.17381256 131.60704525 146.54980469 132.80029297 C145.77797852 133.35990723 145.00615234 133.91952148 144.2109375 134.49609375 C143.5411084 135.00197021 142.8712793 135.50784668 142.18115234 136.02905273 C138.96198056 137.46207783 137.37209552 137.02812096 134 136 C131.04313713 134.39259347 128.31293782 132.50234181 125.5546875 130.578125 C124.7272403 130.01392349 123.89979309 129.44972198 123.04727173 128.86842346 C121.25459666 127.64468798 119.46510512 126.41627866 117.6784668 125.18374634 C112.89106403 121.88154116 108.08058598 118.61320473 103.2734375 115.33984375 C102.27644836 114.65955612 101.27945923 113.97926849 100.2522583 113.27836609 C89.08211988 105.6674956 77.79676572 98.23355433 66.5 90.8125 C64.57663648 89.54788758 62.65329603 88.28324005 60.72998047 87.01855469 C56.73524529 84.39246439 52.73922563 81.76834202 48.74182129 79.14631653 C47.15727528 78.10350503 45.57831889 77.05221259 44 76 C43.67 110.65 43.34 145.3 43 181 C28.81 181 14.62 181 0 181 C0 121.27 0 61.54 0 0 Z " fill="#FFFFFF" transform="translate(2743,766)"/>
<path d="M0 0 C3.46156343 1.38462537 6.00650477 2.49319185 9.046875 4.43359375 C9.80009033 4.9116748 10.55330566 5.38975586 11.3293457 5.88232422 C12.52756958 6.65213623 12.52756958 6.65213623 13.75 7.4375 C14.59199951 7.97391113 15.43399902 8.51032227 16.30151367 9.06298828 C22.34885464 12.9219786 28.37291122 16.81713818 34.38964844 20.72363281 C40.07263024 24.41066594 45.782353 28.05449652 51.5 31.6875 C67.25889254 41.70188778 83.00242103 51.74060547 98.66333008 61.90771484 C105.49673159 66.33681762 112.37238062 70.6993783 119.25268555 75.05517578 C120.12836182 75.61060059 121.00403809 76.16602539 121.90625 76.73828125 C122.75832031 77.27533691 123.61039063 77.81239258 124.48828125 78.36572266 C126.17913934 79.46589801 127.84359706 80.60762237 129.48046875 81.78662109 C130.26035156 82.34559082 131.04023437 82.90456055 131.84375 83.48046875 C132.52630859 83.98860107 133.20886719 84.4967334 133.91210938 85.02026367 C136.7351127 86.3449494 138.06693738 85.97214584 141 85 C143.42159969 83.71326452 143.42159969 83.71326452 145.81640625 82.04296875 C146.73534668 81.43098633 147.65428711 80.81900391 148.60107422 80.18847656 C150.06697998 79.19799316 150.06697998 79.19799316 151.5625 78.1875 C159.06974322 73.19692319 166.6130199 68.33516496 174.375 63.75 C181.95447301 59.26180104 189.37556031 54.58172582 196.75 49.765625 C209.3974707 41.50963718 222.25968456 33.57937507 235.07177734 25.58276367 C241.45648681 21.59603587 247.8274164 17.58837668 254.1875 13.5625 C257.12409651 11.70689897 260.06180036 9.85306127 263 8 C263.67256836 7.57509277 264.34513672 7.15018555 265.03808594 6.71240234 C266.8765467 5.55337274 268.7187325 4.40056304 270.5625 3.25 C272.08037109 2.29867187 272.08037109 2.29867187 273.62890625 1.328125 C276 0 276 0 278 0 C278 59.73 278 119.46 278 181 C263.81 181 249.62 181 235 181 C235 146.02 235 111.04 235 75 C219.85434648 84.56004428 219.85434648 84.56004428 204.91015625 94.390625 C200.46829317 97.36634187 195.98531593 100.27784557 191.5 103.1875 C190.6649292 103.72938965 189.8298584 104.2712793 188.96948242 104.82958984 C187.2235418 105.96235018 185.47752768 107.09499724 183.73144531 108.22753906 C179.9224455 110.6992354 176.11521102 113.17362084 172.31030273 115.65161133 C170.36324722 116.91914884 168.4148537 118.18463356 166.46508789 119.44799805 C161.84537322 122.45000844 157.26524093 125.48936171 152.75390625 128.65234375 C151.93809082 129.21816162 151.12227539 129.78397949 150.28173828 130.36694336 C148.76329491 131.42473004 147.25438328 132.49638795 145.75732422 133.58422852 C145.08330566 134.05143311 144.40928711 134.5186377 143.71484375 135 C142.85040649 135.61875 142.85040649 135.61875 141.96850586 136.25 C138.86901672 137.43090421 137.19102107 136.94742562 134 136 C130.83004421 134.25755662 127.8895903 132.22025192 124.921875 130.15625 C123.60810379 129.26154747 123.60810379 129.26154747 122.26779175 128.34877014 C119.42212502 126.40836868 116.58628087 124.45408829 113.75 122.5 C110.81171487 120.49282283 107.87081942 118.489513 104.92971802 116.48646545 C102.98497773 115.16172856 101.04102505 113.83583469 99.09786987 112.5087738 C90.77328508 106.82713693 82.3699207 101.28089527 73.90917969 95.8046875 C63.87075205 89.29999103 53.95807084 82.63871389 44 76 C43.67 110.65 43.34 145.3 43 181 C28.81 181 14.62 181 0 181 C0 121.27 0 61.54 0 0 Z " fill="#FFFFFF" transform="translate(837,766)"/>
<path d="M0 0 C8.68471509 -0.3274789 17.3672412 -0.57463832 26.05682945 -0.72537041 C30.09417295 -0.79779995 34.1272325 -0.89561265 38.16210938 -1.05615234 C69.15514395 -2.25682465 69.15514395 -2.25682465 79.64453125 6.625 C81.64183471 8.47362886 83.54763702 10.36069593 85.40893555 12.34576416 C87.46944729 14.48808615 89.74008719 16.17246665 92.17578125 17.8671875 C92.86671875 18.37121094 93.55765625 18.87523437 94.26953125 19.39453125 C94.94371094 19.88308594 95.61789062 20.37164063 96.3125 20.875 C103.10365001 25.83776347 109.82087591 30.88755368 116.5 36 C123.52096681 41.36094293 130.54824138 46.71282907 137.625 52 C138.82479492 52.90878906 138.82479492 52.90878906 140.04882812 53.8359375 C140.78810547 54.38507812 141.52738281 54.93421875 142.2890625 55.5 C142.93568848 55.9846875 143.58231445 56.469375 144.24853516 56.96875 C146.09211006 58.25368852 146.09211006 58.25368852 149 58 C151.03045142 56.77049028 151.03045142 56.77049028 153.1484375 55.0625 C153.97811035 54.42296387 154.8077832 53.78342773 155.66259766 53.12451172 C156.55769043 52.42342285 157.4527832 51.72233398 158.375 51 C160.28635275 49.52330082 162.19781409 48.0467422 164.109375 46.5703125 C165.08841797 45.81008789 166.06746094 45.04986328 167.07617188 44.26660156 C171.57462106 40.77932683 176.09797278 37.32505164 180.625 33.875 C181.49133057 33.2140332 182.35766113 32.55306641 183.25024414 31.87207031 C189.75394627 26.92091971 196.30926633 22.04369177 202.90673828 17.21826172 C203.60395996 16.7079541 204.30118164 16.19764648 205.01953125 15.671875 C205.79635254 15.13401367 206.57317383 14.59615234 207.37353516 14.04199219 C209.48055836 12.40384922 211.10109565 10.86482163 212.90380859 8.93457031 C222.3605083 -0.45657063 231.99717615 -1.19654412 244.69447899 -1.16654205 C249.33933872 -1.12318639 253.97874935 -0.98381531 258.62084961 -0.82397461 C262.61624948 -0.69974617 266.61258814 -0.64610505 270.609375 -0.5859375 C278.40878029 -0.45840936 286.20359209 -0.25448159 294 0 C294 0.66 294 1.32 294 2 C292.49731445 3.35009766 292.49731445 3.35009766 290.36328125 4.9140625 C289.56857422 5.5023584 288.77386719 6.0906543 287.95507812 6.69677734 C287.08302734 7.33309082 286.21097656 7.9694043 285.3125 8.625 C283.47463187 9.98352509 281.63741335 11.34292935 279.80078125 12.703125 C278.84510254 13.40888672 277.88942383 14.11464844 276.90478516 14.84179688 C272.23701272 18.30986784 267.61889162 21.84224114 263 25.375 C256.77265159 30.12977492 250.53155338 34.86263795 244.25390625 39.55078125 C240.70303948 42.21364302 237.18123889 44.91441819 233.65527344 47.61010742 C225.90168592 53.53674021 218.12114789 59.41771032 210.25 65.1875 C203.92369355 69.82980171 197.62510982 74.50545393 191.375 79.25 C190.64571289 79.79938232 189.91642578 80.34876465 189.16503906 80.91479492 C188.49956055 81.42244385 187.83408203 81.93009277 187.1484375 82.453125 C186.56239746 82.89817383 185.97635742 83.34322266 185.37255859 83.80175781 C183.85505721 84.9734834 183.85505721 84.9734834 183 87 C183.86890869 87.40943848 183.86890869 87.40943848 184.75537109 87.82714844 C186.97897717 88.98901526 188.89621948 90.2779642 190.9140625 91.765625 C192.04134766 92.59513672 192.04134766 92.59513672 193.19140625 93.44140625 C193.99449219 94.03824219 194.79757812 94.63507813 195.625 95.25 C196.46675781 95.87261719 197.30851562 96.49523437 198.17578125 97.13671875 C204.60463885 101.9127161 210.93169982 106.80992617 217.23364258 111.75146484 C223.29828701 116.49220721 229.47394132 121.06626963 235.68579102 125.61157227 C242.54757396 130.64187129 249.31752727 135.78641674 256.07543945 140.95507812 C262.1911824 145.62999254 268.33582015 150.26417471 274.5 154.875 C286.4829792 163.8517066 286.4829792 163.8517066 291.6875 167.8125 C292.70199219 168.58207031 293.71648437 169.35164062 294.76171875 170.14453125 C297 172 297 172 298 174 C289.31528491 174.3274789 280.6327588 174.57463832 271.94317055 174.72537041 C267.90582705 174.79779995 263.8727675 174.89561265 259.83789062 175.05615234 C228.84485605 176.25682465 228.84485605 176.25682465 218.35546875 167.375 C216.35816529 165.52637114 214.45236298 163.63930407 212.59106445 161.65423584 C210.53055271 159.51191385 208.25991281 157.82753335 205.82421875 156.1328125 C205.13328125 155.62878906 204.44234375 155.12476563 203.73046875 154.60546875 C203.05628906 154.11691406 202.38210938 153.62835937 201.6875 153.125 C194.89636387 148.16224667 188.17868166 143.11301041 181.5 138 C174.53873027 132.67606747 167.54835821 127.3957274 160.5 122.1875 C159.3253418 121.31641602 159.3253418 121.31641602 158.12695312 120.42773438 C154.50934528 117.76464048 150.9171288 115.21504307 147 113 C135.1401015 121.66866435 123.39289721 130.47233532 111.72265625 139.39453125 C108.16264399 142.11599075 104.59034961 144.81872895 101 147.5 C94.48441229 152.36785961 88.02321297 157.30693393 81.55859375 162.2421875 C80.69878906 162.89832031 79.83898438 163.55445313 78.953125 164.23046875 C78.19161133 164.81207764 77.43009766 165.39368652 76.64550781 165.99291992 C75.77249023 166.65525635 74.89947266 167.31759277 74 168 C73.49718506 168.51145569 72.99437012 169.02291138 72.47631836 169.54986572 C65.92815961 175.61641013 58.28470763 174.76362649 49.90625 174.5859375 C48.34828331 174.57473064 46.7902953 174.5661975 45.2322998 174.56021118 C41.15470808 174.53742922 37.07842252 174.47860168 33.00134277 174.4119873 C28.83180404 174.35033242 24.66205182 174.323147 20.4921875 174.29296875 C12.32752918 174.22884467 4.1639276 174.12659848 -4 174 C-1.05678873 171.0248377 1.794187 168.25385051 5.1875 165.80078125 C5.9614209 165.23697754 6.7353418 164.67317383 7.53271484 164.09228516 C8.34691895 163.50495605 9.16112305 162.91762695 10 162.3125 C11.72210026 161.05701233 13.44345354 159.80049943 15.1640625 158.54296875 C15.9984082 157.93372559 16.83275391 157.32448242 17.69238281 156.69677734 C22.22905896 153.36098606 26.66697882 149.89957267 31.11914062 146.45214844 C42.65779125 137.54354331 54.28171915 128.75841883 66.04541016 120.14941406 C72.18623963 115.63888196 78.20639388 110.98814625 84.19165039 106.27368164 C88.18957758 103.13823459 92.22998462 100.08487522 96.3515625 97.11328125 C97.23199219 96.47712891 98.11242188 95.84097656 99.01953125 95.18554688 C100.72688651 93.9581453 102.44025607 92.73905717 104.16015625 91.52929688 C105.30677734 90.70461914 105.30677734 90.70461914 106.4765625 89.86328125 C107.4987085 89.14072144 107.4987085 89.14072144 108.54150391 88.40356445 C109.02280762 87.94038818 109.50411133 87.47721191 110 87 C110 86.01 110 85.02 110 84 C108.56291619 82.53197184 108.56291619 82.53197184 106.58203125 81.20703125 C105.83308594 80.66755859 105.08414062 80.12808594 104.3125 79.57226562 C103.075 78.70118164 103.075 78.70118164 101.8125 77.8125 C100.05734859 76.54990621 98.30348778 75.2855168 96.55078125 74.01953125 C95.63506348 73.36033691 94.7193457 72.70114258 93.77587891 72.02197266 C89.29293053 68.75655679 84.89838411 65.37797541 80.5 62 C73.82239815 56.88546346 67.10137593 51.84083347 60.3125 46.875 C53.36747445 41.79271309 46.55060311 36.56982654 39.77978516 31.25830078 C34.31984497 26.98962027 28.77813657 22.84571262 23.1875 18.75 C17.55440949 14.62082862 11.92924576 10.48494561 6.375 6.25 C5.35148437 5.47140625 4.32796875 4.6928125 3.2734375 3.890625 C1 2 1 2 0 0 Z " fill="#FFFFFF" transform="translate(1539,773)"/>
<path d="M0 0 C3.57399642 3.49073127 6.91065896 7.11087552 10.125 10.9375 C10.83668335 11.78175537 10.83668335 11.78175537 11.56274414 12.64306641 C15.88639241 17.80463101 20.04584793 23.08757414 24.18359375 28.3984375 C27.08939847 32.12560278 30.04144218 35.8146536 33 39.5 C36.84279569 44.28931228 40.65549978 49.10005786 44.4375 53.9375 C48.94258923 59.69617928 53.54116145 65.3742831 58.16381836 71.03881836 C62.11241123 75.8855363 65.98862126 80.78367284 69.8359375 85.7109375 C73.33776247 90.18436708 76.90811164 94.59867202 80.5 99 C85.00759973 104.52339685 89.44842642 110.09184436 93.8359375 115.7109375 C97.33776247 120.18436708 100.90811164 124.59867202 104.5 129 C108.5497569 133.96237817 112.55799493 138.951581 116.5 144 C120.50635734 149.12990329 124.5771546 154.20303782 128.6875 159.25 C129.23494873 159.92305176 129.78239746 160.59610352 130.34643555 161.28955078 C132.75825416 164.25317366 135.17433109 167.21305012 137.6015625 170.1640625 C138.33117188 171.05867187 139.06078125 171.95328125 139.8125 172.875 C140.43769531 173.63554688 141.06289062 174.39609375 141.70703125 175.1796875 C143 177 143 177 143 179 C135.37000578 179.35690538 127.7421801 179.60089176 120.10571289 179.76904297 C117.51244711 179.83917054 114.91972952 179.9345107 112.32836914 180.05615234 C89.60634032 181.09552249 89.60634032 181.09552249 84.02978516 176.13769531 C81.6074497 173.3647401 79.87209008 170.37806252 78.16235447 167.13329506 C74.22014828 159.4883075 74.22014828 159.4883075 67.18182659 155.13656425 C63.65245218 154.76974406 60.21631531 154.69249044 56.66772461 154.70849609 C55.31989452 154.68316969 53.97212942 154.65415926 52.62445068 154.62176514 C48.97692893 154.5467923 45.33135362 154.52955635 41.68314052 154.52761793 C38.62696008 154.52201631 35.57121164 154.49133328 32.51518446 154.46180785 C25.29446089 154.39380194 18.07475719 154.37616706 10.85375977 154.38720703 C3.43479447 154.39743078 -3.97875276 154.31149454 -11.39642912 154.17943132 C-17.78851632 154.06975683 -24.17885562 154.02676335 -30.57187265 154.03446257 C-34.38026876 154.03803857 -38.18404221 154.01625606 -41.99150276 153.92750168 C-59.06774635 152.91610586 -59.06774635 152.91610586 -73.88497925 159.70684814 C-77.02554162 163.17493791 -79.48713118 166.89252131 -81.804492 170.94564247 C-86.20779912 178.51227283 -86.20779912 178.51227283 -90.65132141 179.7215271 C-92.07362312 179.7015416 -92.07362312 179.7015416 -93.5246582 179.68115234 C-94.60540115 179.68069916 -95.6861441 179.68024597 -96.79963684 179.67977905 C-97.9550145 179.64881134 -99.11039215 179.61784363 -100.30078125 179.5859375 C-101.49229294 179.57744781 -102.68380463 179.56895813 -103.91142273 179.56021118 C-107.712706 179.52665574 -111.51185914 179.45136342 -115.3125 179.375 C-117.89124538 179.34490358 -120.47002405 179.31752723 -123.04882812 179.29296875 C-129.36661077 179.22685685 -135.68315321 179.12648321 -142 179 C-140.18567032 175.18821969 -137.81337761 172.03419622 -135.1875 168.75 C-134.70539063 168.1415625 -134.22328125 167.533125 -133.7265625 166.90625 C-129.47486077 161.55628261 -125.15881328 156.25856029 -120.83862305 150.96386719 C-117.34616659 146.6776941 -113.90262584 142.35774888 -110.5 138 C-106.0179989 132.25989332 -101.44043443 126.60306754 -96.8359375 120.9609375 C-93.34469917 116.67548382 -89.90181112 112.35670547 -86.5 108 C-82.55804835 102.9515356 -78.5496258 97.96248538 -74.5 93 C-68.57534029 85.73667048 -62.76730184 78.38856385 -57 71 C-50.69256755 62.91946795 -44.3175703 54.9035386 -37.83642578 46.96142578 C-34.34492588 42.67588622 -30.90200037 38.35684963 -27.5 34 C-22.42941449 27.50741558 -17.24086744 21.11493539 -12.03515625 14.73046875 C-8.79144318 10.75060823 -5.58488961 6.74232957 -2.390625 2.72265625 C-1 1 -1 1 0 0 Z M0 68 C-6.22533688 75.62084165 -12.44412495 83.24337882 -18.5 91 C-23.63153688 97.57175147 -28.88155046 104.04356984 -34.15234375 110.50390625 C-34.63944824 111.10348145 -35.12655273 111.70305664 -35.62841797 112.32080078 C-36.86676193 113.83687941 -38.12186181 115.33923405 -39.37890625 116.83984375 C-41.20007713 118.81647857 -41.20007713 118.81647857 -41 121 C-13.61 121 13.78 121 42 121 C40.09988856 117.8331476 38.53547133 115.26805864 36.25 112.50390625 C35.72986328 111.87033203 35.20972656 111.23675781 34.67382812 110.58398438 C34.12146484 109.91689453 33.56910156 109.24980469 33 108.5625 C31.82197748 107.12707234 30.64490955 105.69086079 29.46875 104.25390625 C28.88222656 103.53734863 28.29570313 102.82079102 27.69140625 102.08251953 C25.25632065 99.08435554 22.87472534 96.04604446 20.5 93 C16.365172 87.70683639 12.16985043 82.46552919 7.9375 77.25 C7.37675781 76.55777344 6.81601563 75.86554688 6.23828125 75.15234375 C5.45324219 74.18748047 5.45324219 74.18748047 4.65234375 73.203125 C4.18820068 72.63239258 3.72405762 72.06166016 3.24584961 71.47363281 C1.92306943 69.86742445 1.92306943 69.86742445 0 68 Z " fill="#FFFFFF" transform="translate(1332,768)"/>
<path d="M0 0 C14.19 0 28.38 0 43 0 C43 57.42 43 114.84 43 174 C28.81 174 14.62 174 0 174 C0 116.58 0 59.16 0 0 Z " fill="#FFFFFF" transform="translate(1917,773)"/>
<path d="M0 0 C21.78 0 43.56 0 66 0 C66 3.96 66 7.92 66 12 C48.51 12 31.02 12 13 12 C13 14.31 13 16.62 13 19 C29.83 19 46.66 19 64 19 C64 22.63 64 26.26 64 30 C47.17 30 30.34 30 13 30 C13 32.64 13 35.28 13 38 C30.49 38 47.98 38 66 38 C66 41.96 66 45.92 66 50 C44.22 50 22.44 50 0 50 C0 33.5 0 17 0 0 Z " fill="#F7AE61" transform="translate(2743,1059)"/>
<path d="M0 0 C21.78 0 43.56 0 66 0 C66 3.96 66 7.92 66 12 C48.51 12 31.02 12 13 12 C13 14.31 13 16.62 13 19 C29.83 19 46.66 19 64 19 C64 22.63 64 26.26 64 30 C47.17 30 30.34 30 13 30 C13 32.64 13 35.28 13 38 C30.49 38 47.98 38 66 38 C66 41.96 66 45.92 66 50 C44.22 50 22.44 50 0 50 C0 33.5 0 17 0 0 Z " fill="#F7AF61" transform="translate(1792,1059)"/>
<path d="M0 0 C21.78 0 43.56 0 66 0 C66 3.96 66 7.92 66 12 C48.51 12 31.02 12 13 12 C13 14.31 13 16.62 13 19 C29.83 19 46.66 19 64 19 C64 22.63 64 26.26 64 30 C47.17 30 30.34 30 13 30 C13 32.64 13 35.28 13 38 C30.49 38 47.98 38 66 38 C66 41.96 66 45.92 66 50 C44.22 50 22.44 50 0 50 C0 33.5 0 17 0 0 Z " fill="#F6AE61" transform="translate(1023,1059)"/>
<path d="M0 0 C21.45 0 42.9 0 65 0 C65 3.96 65 7.92 65 12 C47.51 12 30.02 12 12 12 C12 14.31 12 16.62 12 19 C28.83 19 45.66 19 63 19 C63 22.63 63 26.26 63 30 C46.17 30 29.34 30 12 30 C12 32.64 12 35.28 12 38 C29.49 38 46.98 38 65 38 C65 41.96 65 45.92 65 50 C43.55 50 22.1 50 0 50 C0 33.5 0 17 0 0 Z " fill="#F6AE61" transform="translate(837,1059)"/>
<path d="M0 0 C-0.60698743 4.12751449 -2.03810791 7.3321148 -4 11 C-5.72926874 10.68806536 -7.45841044 10.37542638 -9.1875 10.0625 C-10.63189453 9.80146484 -10.63189453 9.80146484 -12.10546875 9.53515625 C-13.86140741 9.21050902 -15.61388955 8.86499261 -17.35791016 8.48144531 C-21.94238138 7.64605654 -26.53878076 7.73199955 -31.1875 7.6875 C-32.17814453 7.65849609 -33.16878906 7.62949219 -34.18945312 7.59960938 C-41.11157364 7.54060113 -46.91100987 8.56381337 -53 12 C-55.80400011 15.07104774 -56.82111881 16.92671285 -57.5 21 C-56.82111881 25.07328715 -55.80400011 26.92895226 -53 30 C-45.9697233 33.94694038 -39.29464431 34.57351351 -31.375 34.375 C-30.39015625 34.37371094 -29.4053125 34.37242188 -28.390625 34.37109375 C-22.60607862 34.30167919 -17.54608216 33.64669898 -12 32 C-11.67 30.35 -11.34 28.7 -11 27 C-18.59 27 -26.18 27 -34 27 C-34 23.7 -34 20.4 -34 17 C-22.45 17 -10.9 17 1 17 C1.103125 20.3825 1.20625 23.765 1.3125 27.25 C1.35802002 28.30993164 1.40354004 29.36986328 1.45043945 30.46191406 C1.55253251 37.35154865 1.55253251 37.35154865 -1.16015625 40.53515625 C-8.65712567 44.40223126 -16.57122086 46.6868565 -25 47 C-26.68222656 47.07734375 -26.68222656 47.07734375 -28.3984375 47.15625 C-41.09758729 47.47045577 -53.84769053 46.34538467 -64 38 C-70.07217637 31.44353963 -71.42281355 26.1855478 -71.34375 17.30078125 C-70.68763518 11.00058782 -67.59687414 7.59687414 -63.25 3.25 C-45.61545963 -8.95852795 -19.47193499 -7.16567208 0 0 Z " fill="#F6AE61" transform="translate(1187,1063)"/>
<path d="M0 0 C0.886875 0.53625 1.77375 1.0725 2.6875 1.625 C7.44269932 6.50871822 10.28015952 12.33057063 10.5 19.1875 C10.09683331 25.97767582 7.46180504 31.37868659 2.9140625 36.36328125 C-8.38581433 46.02582898 -25.1635101 45.83773363 -39.1328125 44.7578125 C-48.19396784 43.59855242 -57.28050357 40.39977285 -63.625 33.5625 C-67.72450336 28.06434256 -68.80140614 21.74732265 -68 15 C-66.61692858 8.43669745 -63.22702406 4.10024043 -58 0 C-41.80890229 -10.21088873 -16.15828553 -10.2073072 0 0 Z M-52 11 C-54.44649988 14.44039046 -55 16.33939911 -55 20.5625 C-53.77825342 24.76225388 -52.43110399 26.31478818 -49 29 C-38.12808218 34.63729072 -24.61194961 34.29696427 -13 31 C-7.85684004 29.09512594 -5.50125758 26.90631294 -3 22 C-2.36575499 18.19452992 -2.8235816 16.38351826 -4.4375 12.875 C-9.02442684 7.72869183 -15.12193126 5.64019431 -21.9140625 5.08984375 C-22.94660156 5.04537109 -22.94660156 5.04537109 -24 5 C-24.77085937 4.96003906 -25.54171875 4.92007812 -26.3359375 4.87890625 C-35.41637776 4.63542441 -44.56738378 5.42553784 -52 11 Z " fill="#F7AF61" transform="translate(2090,1065)"/>
<path d="M0 0 C-1.32 3.3 -2.64 6.6 -4 10 C-6.40885417 9.51171875 -8.81770833 9.0234375 -11.2265625 8.53515625 C-12.14179688 8.35855469 -13.05703125 8.18195313 -14 8 C-14.88558594 7.81695313 -15.77117188 7.63390625 -16.68359375 7.4453125 C-21.27591779 6.82867535 -25.80907541 6.81574347 -30.4375 6.8125 C-31.35337891 6.80025391 -32.26925781 6.78800781 -33.21289062 6.77539062 C-38.54633415 6.76390439 -42.95645496 7.24481858 -48 9 C-47.67 9.99 -47.34 10.98 -47 12 C-43.01723429 12.71654288 -39.11656745 13.18816639 -35.078125 13.4296875 C-33.41523438 13.53990234 -33.41523438 13.53990234 -31.71875 13.65234375 C-29.42230029 13.79975099 -27.12541082 13.94047266 -24.828125 14.07421875 C-6.26660725 15.3417298 -6.26660725 15.3417298 0 22 C2.41665436 25.84467739 2.23767494 29.42966319 1.5859375 33.7890625 C0.62565244 37.41253813 -1.05376851 39.79871542 -4 42 C-19.20362608 50.02627976 -39.84735989 48.48581891 -56 44 C-61.75867159 41.48265683 -61.75867159 41.48265683 -63 39 C-62.22265625 36.8359375 -62.22265625 36.8359375 -61.0625 34.375 C-60.68222656 33.55773438 -60.30195313 32.74046875 -59.91015625 31.8984375 C-59.60980469 31.27195312 -59.30945312 30.64546875 -59 30 C-58.13503906 30.28875 -57.27007813 30.5775 -56.37890625 30.875 C-47.47354665 33.50012136 -39.16849954 34.41041907 -29.875 34.4375 C-28.79677979 34.44716797 -27.71855957 34.45683594 -26.60766602 34.46679688 C-20.92583893 34.40624296 -16.80658874 34.13509335 -12 31 C-13.61202947 29.08091729 -14.57584609 28.10207832 -17.04614258 27.50756836 C-17.82111084 27.45221924 -18.5960791 27.39687012 -19.39453125 27.33984375 C-20.69438965 27.23470459 -20.69438965 27.23470459 -22.02050781 27.12744141 C-22.94186523 27.06476074 -23.86322266 27.00208008 -24.8125 26.9375 C-26.72022742 26.77944605 -28.62778143 26.61928492 -30.53515625 26.45703125 C-31.46859863 26.38049316 -32.40204102 26.30395508 -33.36376953 26.22509766 C-54.90471364 24.38579867 -54.90471364 24.38579867 -60.70703125 18.171875 C-63.01878735 14.28868349 -62.69729919 10.36329789 -62 6 C-58.9133587 0.25246103 -54.83817483 -1.30411669 -48.74609375 -3.25390625 C-33.19146153 -7.47998698 -14.93962455 -5.66675414 0 0 Z " fill="#F7AE61" transform="translate(2898,1063)"/>
<path d="M0 0 C-1.32 3.3 -2.64 6.6 -4 10 C-6.40885417 9.51171875 -8.81770833 9.0234375 -11.2265625 8.53515625 C-12.14179688 8.35855469 -13.05703125 8.18195313 -14 8 C-14.88558594 7.81695313 -15.77117188 7.63390625 -16.68359375 7.4453125 C-21.27591779 6.82867535 -25.80907541 6.81574347 -30.4375 6.8125 C-31.35337891 6.80025391 -32.26925781 6.78800781 -33.21289062 6.77539062 C-38.54633415 6.76390439 -42.95645496 7.24481858 -48 9 C-47.67 9.99 -47.34 10.98 -47 12 C-43.01723429 12.71654288 -39.11656745 13.18816639 -35.078125 13.4296875 C-33.41523438 13.53990234 -33.41523438 13.53990234 -31.71875 13.65234375 C-29.42230029 13.79975099 -27.12541082 13.94047266 -24.828125 14.07421875 C-16.03135232 14.67492429 -6.46075287 15.3373486 0 22 C2.52470277 25.48649431 2.36226929 28.79767625 2 33 C0.01399067 38.33086715 -2.68136373 41.435001 -7.85546875 43.875 C-22.38974783 49.7224469 -41.16285217 48.12048791 -56 44 C-61.75867159 41.48265683 -61.75867159 41.48265683 -63 39 C-62.22265625 36.8359375 -62.22265625 36.8359375 -61.0625 34.375 C-60.68222656 33.55773438 -60.30195313 32.74046875 -59.91015625 31.8984375 C-59.60980469 31.27195312 -59.30945312 30.64546875 -59 30 C-55.56944315 30.63348677 -52.31695808 31.50409309 -48.98828125 32.5390625 C-42.6807067 34.27594619 -36.69808584 34.44538471 -30.1875 34.375 C-29.09501953 34.38660156 -28.00253906 34.39820313 -26.87695312 34.41015625 C-21.10414428 34.38907478 -16.87445377 34.21560825 -12 31 C-13.61202947 29.08091729 -14.57584609 28.10207832 -17.04614258 27.50756836 C-17.82111084 27.45221924 -18.5960791 27.39687012 -19.39453125 27.33984375 C-20.69438965 27.23470459 -20.69438965 27.23470459 -22.02050781 27.12744141 C-22.94186523 27.06476074 -23.86322266 27.00208008 -24.8125 26.9375 C-26.72022742 26.77944605 -28.62778143 26.61928492 -30.53515625 26.45703125 C-31.46859863 26.38049316 -32.40204102 26.30395508 -33.36376953 26.22509766 C-54.90471364 24.38579867 -54.90471364 24.38579867 -60.70703125 18.171875 C-63.01878735 14.28868349 -62.69729919 10.36329789 -62 6 C-58.9133587 0.25246103 -54.83817483 -1.30411669 -48.74609375 -3.25390625 C-33.19146153 -7.47998698 -14.93962455 -5.66675414 0 0 Z " fill="#F7AF61" transform="translate(2610,1063)"/>
<path d="M0 0 C6.8475 -0.04125 13.695 -0.0825 20.75 -0.125 C22.8856543 -0.14320801 25.02130859 -0.16141602 27.22167969 -0.18017578 C54.84154269 -0.32011959 54.84154269 -0.32011959 63 7 C66.86671792 12.07506727 66.75808108 17.87292118 66 24 C64.90301573 28.16231619 63.1710199 30.27866643 59.5078125 32.53515625 C57.03676531 33.79168025 54.560565 34.93961335 52 36 C52.45439453 36.35304199 52.90878906 36.70608398 53.37695312 37.06982422 C55.42300063 38.66521665 57.4615322 40.26993617 59.5 41.875 C60.21542969 42.43058594 60.93085937 42.98617188 61.66796875 43.55859375 C62.34472656 44.09355469 63.02148438 44.62851563 63.71875 45.1796875 C64.34716797 45.67194824 64.97558594 46.16420898 65.62304688 46.67138672 C66.07744141 47.1098291 66.53183594 47.54827148 67 48 C67 48.66 67 49.32 67 50 C50.04268899 51.6957311 50.04268899 51.6957311 43.63769531 46.56982422 C41.3345502 44.46517483 39.16087382 42.24943422 37 40 C34.03990208 37.40454617 32.16118806 36.61414064 28.234375 36.48828125 C27.34492187 36.45283203 26.45546875 36.41738281 25.5390625 36.38085938 C24.61867188 36.35830078 23.69828125 36.33574219 22.75 36.3125 C21.81414062 36.27833984 20.87828125 36.24417969 19.9140625 36.20898438 C17.60979154 36.12668898 15.30491537 36.06166287 13 36 C13 40.62 13 45.24 13 50 C8.71 50 4.42 50 0 50 C0 33.5 0 17 0 0 Z M13 11 C13 15.95 13 20.9 13 26 C17.12615882 26.04618834 21.25164948 26.08592894 25.37792969 26.10986328 C26.77835142 26.11985248 28.17875268 26.13344854 29.57910156 26.15087891 C40.45928747 26.36088505 40.45928747 26.36088505 51 24 C53.36410488 22.06268472 53.36410488 22.06268472 53.3125 18.5625 C53.29779851 15.12178535 53.29779851 15.12178535 51.75 13.125 C47.64997577 10.48927014 43.10929138 10.8676108 38.390625 10.90234375 C37.66381531 10.9037587 36.93700562 10.90517365 36.18817139 10.90663147 C33.87540506 10.91221208 31.56273688 10.92476096 29.25 10.9375 C27.67838682 10.94251751 26.10677211 10.94707998 24.53515625 10.95117188 C20.69003628 10.96132267 16.84512752 10.98090168 13 11 Z " fill="#F6AF61" transform="translate(1887,1059)"/>
<path d="M0 0 C6.868125 -0.04125 13.73625 -0.0825 20.8125 -0.125 C22.9572583 -0.14320801 25.1020166 -0.16141602 27.31176758 -0.18017578 C52.04563226 -0.30291183 52.04563226 -0.30291183 60 5 C64.04707123 9.0139889 66.13092018 12.56689847 66.25 18.3125 C66.18047279 22.60232901 65.46339376 25.38702249 63 29 C59.51107263 32.33723488 56.48492175 34.3276563 52 36 C52.45439453 36.35304199 52.90878906 36.70608398 53.37695312 37.06982422 C55.42300063 38.66521665 57.4615322 40.26993617 59.5 41.875 C60.21542969 42.43058594 60.93085938 42.98617188 61.66796875 43.55859375 C62.34472656 44.09355469 63.02148438 44.62851563 63.71875 45.1796875 C64.34716797 45.67194824 64.97558594 46.16420898 65.62304688 46.67138672 C66.07744141 47.1098291 66.53183594 47.54827148 67 48 C67 48.66 67 49.32 67 50 C52.31570522 51.98849825 52.31570522 51.98849825 46.89941406 48.74023438 C44.8847102 47.09101652 42.99675455 45.37215159 41.125 43.5625 C34.1955197 36.8761905 28.8208514 35.66716684 19.29736328 35.69555664 C17.19653514 35.75149341 15.09748005 35.8689075 13 36 C13 40.62 13 45.24 13 50 C8.71 50 4.42 50 0 50 C0 33.5 0 17 0 0 Z M13 11 C13 15.95 13 20.9 13 26 C16.96544147 26.0462592 20.93018317 26.08597719 24.89575195 26.10986328 C26.89736377 26.12470245 28.89888812 26.15013361 30.90039062 26.17578125 C37.8968001 26.21102765 44.30392314 26.14444879 51 24 C53.3128976 21.11538937 53.3128976 21.11538937 53.0625 17.5 C52.36334444 13.73224103 52.36334444 13.73224103 48.91381836 12.29956055 C45.01922693 10.80643022 41.49375714 10.65670172 37.31640625 10.70703125 C36.61603745 10.71127609 35.91566864 10.71552094 35.19407654 10.71989441 C32.98314 10.73652844 30.77315543 10.7741482 28.5625 10.8125 C27.05274765 10.82756674 25.54298084 10.84125164 24.03320312 10.85351562 C20.35481757 10.88381534 16.6784592 10.94255732 13 11 Z " fill="#F7AF61" transform="translate(2130,1059)"/>
<path d="M0 0 C3.73338409 1.49335364 6.85561159 2.96021757 10.296875 4.94921875 C11.32699707 5.543396 12.35711914 6.13757324 13.41845703 6.74975586 C14.51786621 7.38921143 15.61727539 8.02866699 16.75 8.6875 C17.88421387 9.34435791 19.01842773 10.00121582 20.18701172 10.67797852 C32.20509167 17.65186877 44.10332356 24.82097112 56 32 C56.33 22.1 56.66 12.2 57 2 C61.29 2 65.58 2 70 2 C70 19.16 70 36.32 70 54 C66.26744871 52.50697948 63.17037559 51.04854911 59.73828125 49.05078125 C58.71331543 48.456604 57.68834961 47.86242676 56.63232422 47.25024414 C55.53678223 46.61078857 54.44124023 45.97133301 53.3125 45.3125 C51.58325642 44.30876065 49.85400954 43.30502692 48.12457275 42.30162048 C46.31669213 41.252186 44.50963367 40.20134582 42.70263672 39.15039062 C36.60274615 35.60496176 30.48763211 32.08589751 24.375 28.5625 C20.62125 26.396875 16.8675 24.23125 13 22 C13 31.9 13 41.8 13 52 C8.71 52 4.42 52 0 52 C0 34.84 0 17.68 0 0 Z " fill="#F6AF61" transform="translate(2408,1057)"/>
<path d="M0 0 C7.67334081 3.83667041 15.05674933 7.66046756 22.375 12.0625 C24.27075771 13.19283518 26.16659357 14.32303929 28.0625 15.453125 C29.51269531 16.3203418 29.51269531 16.3203418 30.9921875 17.20507812 C36.10925619 20.25870548 41.24313461 23.28383276 46.375 26.3125 C49.55125 28.189375 52.7275 30.06625 56 32 C56.33 22.1 56.66 12.2 57 2 C61.29 2 65.58 2 70 2 C70 19.16 70 36.32 70 54 C66.35048517 52.54019407 63.21040152 51.09932234 59.81640625 49.19921875 C58.3164209 48.36064331 58.3164209 48.36064331 56.78613281 47.50512695 C55.72233398 46.90531006 54.65853516 46.30549316 53.5625 45.6875 C52.46389648 45.07028076 51.36529297 44.45306152 50.23339844 43.81713867 C37.70153353 36.74795074 25.33706497 29.40223898 13 22 C13 31.9 13 41.8 13 52 C8.71 52 4.42 52 0 52 C0 34.84 0 17.68 0 0 Z " fill="#F7AF62" transform="translate(1601,1057)"/>
<path d="M0 0 C21.78 0 43.56 0 66 0 C66 3.96 66 7.92 66 12 C48.51 12 31.02 12 13 12 C13 14.64 13 17.28 13 20 C29.83 20 46.66 20 64 20 C64 23.63 64 27.26 64 31 C47.17 31 30.34 31 13 31 C13 37.27 13 43.54 13 50 C8.71 50 4.42 50 0 50 C0 33.5 0 17 0 0 Z " fill="#F6AE61" transform="translate(2274,1059)"/>
<path d="M0 0 C11.24248836 5.62124418 11.24248836 5.62124418 16.21484375 8.6015625 C17.30498779 9.25189453 18.39513184 9.90222656 19.51831055 10.57226562 C20.64664307 11.24966797 21.77497559 11.92707031 22.9375 12.625 C25.31667283 14.04600948 27.69738821 15.46442522 30.078125 16.8828125 C30.66510666 17.23293396 31.25208832 17.58305542 31.8568573 17.94378662 C39.85738559 22.71121947 47.92989009 27.35161669 56 32 C56.33 22.1 56.66 12.2 57 2 C60.96 2 64.92 2 69 2 C69 19.16 69 36.32 69 54 C61.32665919 50.16332959 53.94325067 46.33953244 46.625 41.9375 C44.72924229 40.80716482 42.83340643 39.67696071 40.9375 38.546875 C39.97070312 37.96873047 39.00390625 37.39058594 38.0078125 36.79492188 C32.89074381 33.74129452 27.75686539 30.71616724 22.625 27.6875 C19.44875 25.810625 16.2725 23.93375 13 22 C12.67 31.9 12.34 41.8 12 52 C8.04 52 4.08 52 0 52 C0 34.84 0 17.68 0 0 Z " fill="#F6AF61" transform="translate(1320,1057)"/>
<path d="M0 0 C4.29 0 8.58 0 13 0 C13 6.27 13 12.54 13 19 C28.18 19 43.36 19 59 19 C59 12.73 59 6.46 59 0 C63.29 0 67.58 0 72 0 C72 16.5 72 33 72 50 C67.71 50 63.42 50 59 50 C59 43.4 59 36.8 59 30 C43.82 30 28.64 30 13 30 C13 36.6 13 43.2 13 50 C8.71 50 4.42 50 0 50 C0 33.5 0 17 0 0 Z " fill="#F6AE61" transform="translate(2641,1059)"/>
<path d="M0 0 C3.95079122 1.31693041 5.46244439 3.85383566 7.875 7.0625 C8.86063433 8.34608587 9.84767008 9.62859656 10.8359375 10.91015625 C11.3525293 11.58191895 11.86912109 12.25368164 12.40136719 12.94580078 C15.04498877 16.34278185 17.77371772 19.66927544 20.5 23 C26.42617473 30.2612406 32.25549467 37.59419173 38 45 C38.89332031 46.12148437 38.89332031 46.12148437 39.8046875 47.265625 C41 49 41 49 41 51 C38.43493576 51.16276553 35.88024578 51.28113984 33.3125 51.375 C32.59126953 51.42527344 31.87003906 51.47554687 31.12695312 51.52734375 C30.42119141 51.54667969 29.71542969 51.56601563 28.98828125 51.5859375 C28.34415283 51.6173584 27.70002441 51.6487793 27.03637695 51.68115234 C25 51 25 51 22.81445312 48.01367188 C21.28543686 46.05546603 20.45904867 45.13518144 18.05473328 44.42715454 C15.68051751 44.21144385 13.36437007 44.16910701 10.98046875 44.1953125 C9.69261223 44.17475296 9.69261223 44.17475296 8.3787384 44.15377808 C5.6477909 44.11651238 2.91866544 44.12019034 0.1875 44.125 C-1.66864817 44.10687071 -3.52477228 44.08606728 -5.38085938 44.0625 C-9.92087776 44.01068152 -14.45970213 43.99556704 -19 44 C-19.28875 44.598125 -19.5775 45.19625 -19.875 45.8125 C-21 48 -21 48 -23 51 C-25.7885289 51.22107787 -28.34653181 51.28107535 -31.125 51.1875 C-32.25615234 51.16719727 -32.25615234 51.16719727 -33.41015625 51.14648438 C-35.27374127 51.11109985 -37.13695978 51.05729167 -39 51 C-37.433406 45.74730246 -34.04547023 42.15441337 -30.5625 38.0625 C-29.28388471 36.53622056 -28.00655611 35.00886236 -26.73046875 33.48046875 C-26.0967334 32.7229834 -25.46299805 31.96549805 -24.81005859 31.18505859 C-22.27521139 28.12505287 -19.81628318 25.00985011 -17.375 21.875 C-11.64763126 14.53158799 -5.82876614 7.26306985 0 0 Z M0 21 C-1.78796553 22.94331336 -3.46537204 24.88969575 -5.125 26.9375 C-5.59292969 27.50146484 -6.06085938 28.06542969 -6.54296875 28.64648438 C-8.93526005 31.03973081 -8.93526005 31.03973081 -10 34 C-2.74 34 4.52 34 12 34 C10.02 31.36 8.04 28.72 6 26 C5.2575 25.01 4.515 24.02 3.75 23 C3.1725 22.34 2.595 21.68 2 21 C1.34 21 0.68 21 0 21 Z " fill="#F6AE62" transform="translate(1252,1058)"/>
<path d="M0 0 C22.11 0 44.22 0 67 0 C67 3.96 67 7.92 67 12 C58.09 12 49.18 12 40 12 C40 24.54 40 37.08 40 50 C35.71 50 31.42 50 27 50 C27 37.46 27 24.92 27 12 C18.09 12 9.18 12 0 12 C0 8.04 0 4.08 0 0 Z " fill="#F6AE61" transform="translate(1698,1059)"/>
<path d="M0 0 C22.11 0 44.22 0 67 0 C67 3.96 67 7.92 67 12 C57.76 12 48.52 12 39 12 C39 24.54 39 37.08 39 50 C35.04 50 31.08 50 27 50 C27 37.46 27 24.92 27 12 C18.09 12 9.18 12 0 12 C0 8.04 0 4.08 0 0 Z " fill="#F7AE61" transform="translate(1417,1059)"/>
<path d="M0 0 C3.96 0 7.92 0 12 0 C12 12.54 12 25.08 12 38 C29.49 38 46.98 38 65 38 C65 41.96 65 45.92 65 50 C43.55 50 22.1 50 0 50 C0 33.5 0 17 0 0 Z " fill="#F6AE62" transform="translate(931,1059)"/>
<path d="M0 0 C4.29 0 8.58 0 13 0 C13 16.5 13 33 13 50 C8.71 50 4.42 50 0 50 C0 33.5 0 17 0 0 Z " fill="#F7AF61" transform="translate(2366,1059)"/>
<path d="M0 0 C4.29 0 8.58 0 13 0 C13 16.5 13 33 13 50 C8.71 50 4.42 50 0 50 C0 33.5 0 17 0 0 Z " fill="#F6AF61" transform="translate(1981,1059)"/>
<path d="M0 0 C3.96 0 7.92 0 12 0 C12 16.5 12 33 12 50 C8.04 50 4.08 50 0 50 C0 33.5 0 17 0 0 Z " fill="#F6AF61" transform="translate(2507,1059)"/>
<path d="M0 0 C3.96 0 7.92 0 12 0 C12 16.5 12 33 12 50 C8.04 50 4.08 50 0 50 C0 33.5 0 17 0 0 Z " fill="#F6AE61" transform="translate(1559,1059)"/>
</svg>
