<?xml version="1.0" standalone="no"?>
<!DOCTYPE svg PUBLIC "-//W3C//DTD SVG 20010904//EN"
 "http://www.w3.org/TR/2001/REC-SVG-20010904/DTD/svg10.dtd">
<svg version="1.0" xmlns="http://www.w3.org/2000/svg"
 width="500.000000pt" height="500.000000pt" viewBox="0 0 500.000000 500.000000"
 preserveAspectRatio="xMidYMid meet">
<metadata>
Created by potrace 1.11, written by Peter Selinger 2001-2013
</metadata>
<g transform="translate(0.000000,500.000000) scale(0.100000,-0.100000)"
fill="#000000" stroke="none">
<path d="M2320 4897 c-3 -3 -36 -7 -75 -10 -120 -11 -294 -46 -434 -88 -893
-267 -1544 -1018 -1688 -1949 -19 -123 -25 -527 -10 -625 4 -27 10 -68 13 -90
17 -130 98 -426 144 -530 83 -185 131 -277 213 -410 102 -166 331 -422 492
-550 28 -22 52 -43 55 -46 3 -4 63 -45 133 -93 273 -183 609 -318 918 -370
158 -27 214 -31 419 -31 221 0 273 4 470 40 175 31 389 104 585 200 482 235
866 620 1100 1100 102 208 183 457 211 642 3 21 7 45 9 53 19 71 28 504 13
620 -4 30 -10 75 -13 100 -18 146 -85 385 -158 565 -7 16 -40 86 -74 155 -277
559 -790 1003 -1389 1199 -82 27 -163 52 -180 55 -16 2 -40 7 -54 11 -14 3
-63 12 -110 20 -47 8 -101 17 -120 20 -40 8 -464 18 -470 12z"/>
</g>
</svg>
